<?xml version="1.0" ?>
<!-- Uploaded to: SVG Repo, www.svgrepo.com, Generator: SVG Repo Mixer Tools -->
<svg width="800px" height="800px" viewBox="0 0 512 512" id="Layer_1" version="1.1" xml:space="preserve" xmlns="http://www.w3.org/2000/svg" xmlns:xlink="http://www.w3.org/1999/xlink">
<style type="text/css">
	.st0{fill:#D8D8D8;}
	.st1{fill:#49A8FF;}
	.st2{fill:#FDCEB6;}
	.st3{fill:#FFFFFF;}
	.st4{fill:none;stroke:#34374F;stroke-width:12;stroke-linecap:round;stroke-linejoin:round;stroke-miterlimit:10;}
	.st5{fill:#99DB3B;}
	.st6{fill:#474C68;}
	.st7{fill:none;stroke:#34374F;stroke-width:11;stroke-linecap:round;stroke-linejoin:round;stroke-miterlimit:10;}
	.st8{fill:#34374F;}
	.st9{fill:none;stroke:#34374F;stroke-width:13;stroke-linecap:round;stroke-linejoin:round;stroke-miterlimit:10;}
	.st10{fill:none;stroke:#FFFFFF;stroke-width:12;stroke-linecap:round;stroke-linejoin:round;stroke-miterlimit:10;}
	.st11{fill:none;stroke:#34374F;stroke-width:12;stroke-linecap:round;stroke-linejoin:round;}
	.st12{fill:none;stroke:#34374F;stroke-width:12;stroke-linecap:round;stroke-linejoin:round;stroke-dasharray:27.2333,27.2333;}
</style>
<g>
<path class="st0" d="M467.49,472.15l-28.18-131.76c-0.05-0.25-0.12-0.49-0.21-0.73c-6.24-17.58-20.66-31.56-39.57-38.36   c-14.15-5.09-29.24-9-38.45-9.98c-12.49-1.33-34.22-14.77-43.8-21.36v-23.32c0-1.1-0.31-2.12-0.84-3   c20.82-13.16,34.88-36.04,35.77-62.22c9.73-2.22,17.02-10.94,17.02-21.33v-6.81c0-3.03-0.84-5.86-2.28-8.29   c0-0.05,0.01-0.11,0.01-0.16V81.01c0.08-1.74,0.36-12.61-4.56-24.65c-4.91-12.01-16.06-27.52-41.23-33.16   c-43.95-9.85-76.33-2.47-85.1,1.21c-3.41,1.43-5.96,4.82-7.92,10.67c-14.43,1.48-27.76,7.84-37.67,18.05   c-10.38,10.7-16.1,24.64-16.1,39.25l0.05,51.51c-1.87,2.66-2.98,5.9-2.98,9.4v6.81c0,10.71,7.74,19.65,17.93,21.52   c0.97,26.68,15.61,49.92,37.13,62.89c-0.44,0.82-0.69,1.75-0.69,2.74v22.33c-9.27,6.43-31.61,20.39-44.35,21.74   c-9.21,0.98-24.3,4.89-38.45,9.98c-18.91,6.8-33.34,20.78-39.57,38.36c-0.09,0.24-0.15,0.48-0.21,0.73L75.07,472.15   c-0.37,1.72,0.06,3.5,1.16,4.87c1.1,1.36,2.76,2.16,4.52,2.16h58.59c1.57,8.28,8.84,14.55,17.58,14.55h225.76   c8.74,0,16.01-6.27,17.58-14.55h61.56c1.75,0,3.41-0.79,4.52-2.16C467.43,475.65,467.86,473.86,467.49,472.15z"/>
<g>
<circle class="st0" cx="401.34" cy="185.6" r="80.15"/>
<g>
<path class="st0" d="M178.75,303.2V175.06c0-10.43-8.02-18.89-17.9-18.89H66.81c-9.89,0-17.9,8.46-17.9,18.89v70.99     c0,10.43,8.02,18.89,17.9,18.89h62.58c7.17,0,14.07,2.9,19.27,8.11L178.75,303.2z"/>
<path class="st5" d="M160.35,298.36V170.21c0-10.43-8.02-18.89-17.9-18.89H48.42c-9.89,0-17.9,8.46-17.9,18.89v70.99     c0,10.43,8.02,18.89,17.9,18.89H111c7.17,0,14.07,2.9,19.27,8.11L160.35,298.36z"/>
<g>
<path class="st3" d="M50.51,241.2v-70.99c0-10.43,8.02-18.89,17.9-18.89h-20c-9.89,0-17.9,8.46-17.9,18.89v70.99      c0,10.43,8.02,18.89,17.9,18.89h20C58.52,260.09,50.51,251.63,50.51,241.2z"/>
</g>
<path class="st4" d="M160.35,298.36V170.21c0-10.43-8.02-18.89-17.9-18.89H48.42c-9.89,0-17.9,8.46-17.9,18.89v70.99     c0,10.43,8.02,18.89,17.9,18.89H111c7.17,0,14.07,2.9,19.27,8.11L160.35,298.36z"/>
<g>
<line class="st4" x1="52.47" x2="85.88" y1="185.86" y2="185.86"/>
<line class="st4" x1="52.47" x2="135.53" y1="222.14" y2="222.14"/>
<line class="st4" x1="112.62" x2="132.67" y1="185.86" y2="185.86"/>
</g>
</g>
<circle class="st3" cx="379.58" cy="182.7" r="80.15"/>
<path class="st5" d="M321.7,182.7c0-40.49,30.02-73.94,69.01-79.36c-3.64-0.51-7.36-0.79-11.14-0.79    c-44.27,0-80.15,35.89-80.15,80.15s35.89,80.15,80.15,80.15c3.78,0,7.5-0.28,11.14-0.79C351.72,256.64,321.7,223.18,321.7,182.7z"/>
<circle class="st4" cx="379.58" cy="182.7" r="80.15"/>
<g>
<path class="st1" d="M295.47,272.33c0,0,30.61,21.89,48.55,23.8c8.78,0.93,23.61,4.82,37.1,9.67     c17.19,6.18,30.43,18.94,36.06,34.83l14.79,78.61l-178.15,21.64L77.67,419.25l15.24-78.61c5.64-15.89,18.88-28.66,36.06-34.83     c13.49-4.85,28.32-8.74,37.1-9.67c17.94-1.9,48.55-23.8,48.55-23.8S248.88,314.75,295.47,272.33z"/>
<path class="st3" d="M214.63,273.34c0,0-30.61,21.89-48.55,23.8c-8.78,0.93-23.61,4.82-37.1,9.67     c-17.19,6.18-30.43,18.94-36.06,34.83l-4.97,3.93v3.82l1.31,2.97l-11.32,65.77l16.11,2.55l9.91-60.4     c3.12-19,15.94-35.38,34.24-42.6c0.63-0.25,1.26-0.48,1.89-0.71c13.49-4.85,28.32-8.74,37.1-9.67     c17.94-1.9,48.55-23.8,48.55-23.8s0.72,0.42,2.12,0.98C219.42,279.27,214.63,273.34,214.63,273.34z"/>
<g>
<polygon class="st2" points="153.43,429.43 76.37,415.43 64.29,472.39 144.29,470.16     "/>
<path class="st4" d="M214.17,272.33c0,0-30.61,21.89-48.55,23.8c-8.78,0.93-23.61,4.82-37.1,9.67      c-17.19,6.18-30.43,18.94-36.06,34.83L64.29,472.39h70.86"/>
<line class="st4" x1="77.67" x2="126" y1="419.25" y2="426.88"/>
</g>
<polygon class="st6" points="178.92,133.21 178.92,101.08 190.02,84.69 203.14,79.45 246.53,80.43 306.06,81.09 324.9,91.58      329.6,100.76 330.28,114.52 329.6,133.54 332.63,140.75 343.73,141.4 344.74,123.37 344.4,67.32 337.68,50.93 327.59,39.46      314.47,32.24 293.62,27.65 272.43,24.05 252.58,23.39 228.03,26.67 218.95,33.56 209.2,42.08 193.05,44.37 172.87,59.45      163.79,80.1 162.78,104.69 163.12,130.91 164.8,139.11 175.9,141.4    "/>
<path class="st2" d="M256.83,248.69h-4.98c-40.42,0-73.19-32.77-73.19-73.19v-65.83c0-16.05,13.01-29.06,29.06-29.06h93.24     c16.05,0,29.06,13.01,29.06,29.06v65.83C330.02,215.92,297.25,248.69,256.83,248.69z"/>
<path class="st3" d="M277.3,241.81h-14.98c-37.66,0-68.19-29.76-68.19-66.46v-75.23c0-7.65,3.34-14.53,8.67-19.35     c-13.57,1.43-24.14,12.62-24.14,26.23v75.23c0,36.71,30.53,66.46,68.19,66.46h14.98c13.12,0,25.37-3.62,35.77-9.88     C291.19,240.76,284.37,241.81,277.3,241.81z"/>
<path class="st2" d="M330.37,175.2h-0.56v-33.46h6.24c6.03,0,10.93,4.89,10.93,10.93v5.93     C346.97,167.76,339.54,175.2,330.37,175.2z"/>
<path class="st2" d="M177.4,175.2h0.56v-33.46h-6.24c-6.03,0-10.93,4.89-10.93,10.93v5.93C160.8,167.76,168.24,175.2,177.4,175.2     z"/>
<path class="st3" d="M212.05,53.14c0,0-31.78,3.2-46.41,39.58l0.76-16.23l10.09-18.19l25.23-15.73l14.13-1.97L212.05,53.14z"/>
<path class="st4" d="M330.37,175.2h-0.56v-33.46h6.24c6.03,0,10.93,4.89,10.93,10.93v5.93     C346.97,167.76,339.54,175.2,330.37,175.2z"/>
<path class="st3" d="M215.84,60.27c0,0,7.55-0.66,9.59-8.11c2.02-7.38,4.04-16.47,7.82-23.36c4.1-7.46-9.84-0.49-9.84-0.49     l-8.32,4.18l-0.76,22.37L215.84,60.27z"/>
<path class="st4" d="M177.4,175.2h0.56v-33.46h-6.24c-6.03,0-10.93,4.89-10.93,10.93v5.93C160.8,167.76,168.24,175.2,177.4,175.2     z"/>
<path class="st2" d="M295.02,245.67v25.94v0c-20.15,25.57-59.7,25.57-79.85,0v0v-25.34"/>
<path class="st3" d="M229.64,268.66L229.64,268.66v-22.5l-14.46,0.11v25.34v0c14.08,17.87,37.61,23.23,57.4,16.14     C256.67,288.67,240.39,282.31,229.64,268.66z"/>
<path class="st4" d="M213.62,55.68c0,0,1.83-24.2,8.25-26.89c6.42-2.69,37.58-10.76,81.59-0.9c44,9.86,41.25,51.99,41.25,51.99     v63.98"/>
<path class="st4" d="M295.02,245.67v25.94v0c-20.15,25.57-59.7,25.57-79.85,0v0v-25.34"/>
<path class="st4" d="M256.83,248.69h-4.98c-40.42,0-73.19-32.77-73.19-73.19v-65.83c0-16.05,13.01-29.06,29.06-29.06h93.24     c16.05,0,29.06,13.01,29.06,29.06v65.83C330.02,215.92,297.25,248.69,256.83,248.69z"/>
<path class="st4" d="M215.01,39.65c-0.38,0.03-0.75,0.05-1.13,0.08c-28.3,2.11-50.15,24.6-50.15,51.68l0.05,51.97"/>
<path class="st4" d="M312.97,285.4c-12.08,14.93-31.21,24.21-50.71,24.62"/>
<g>
<polygon class="st2" points="356.21,429.43 433.27,415.43 445.35,472.39 365.36,470.16     "/>
<path class="st4" d="M295.47,272.33c0,0,30.61,21.89,48.55,23.8c8.78,0.93,23.61,4.82,37.1,9.67      c17.19,6.18,30.43,18.94,36.06,34.83l28.18,131.76H374.5"/>
<line class="st4" x1="431.97" x2="383.64" y1="419.25" y2="426.88"/>
</g>
</g>
<path class="st3" d="M365.63,490.75H141.04c-10.21,0-18.49-8.28-18.49-18.49V339.89c0-10.21,8.28-18.49,18.49-18.49h224.59    c10.21,0,18.49,8.28,18.49,18.49v132.37C384.12,482.47,375.84,490.75,365.63,490.75z"/>
<path class="st5" d="M141.65,472.12V340.03c0-10.29,8.34-18.63,18.63-18.63h-19.09c-10.29,0-18.63,8.34-18.63,18.63v132.09    c0,10.29,8.34,18.63,18.63,18.63h19.09C149.99,490.75,141.65,482.41,141.65,472.12z"/>
<path class="st4" d="M365.63,490.75H141.04c-10.21,0-18.49-8.28-18.49-18.49V339.89c0-10.21,8.28-18.49,18.49-18.49h224.59    c10.21,0,18.49,8.28,18.49,18.49v132.37C384.12,482.47,375.84,490.75,365.63,490.75z"/>
<path class="st5" d="M258.61,373.54l6.34,12.52c0.62,1.22,1.81,2.06,3.18,2.25l14.18,2.01c3.47,0.49,4.85,4.64,2.34,7.02    l-10.26,9.75c-1,0.95-1.45,2.31-1.22,3.65l2.42,13.76c0.59,3.36-3.03,5.93-6.13,4.34l-12.68-6.5c-1.23-0.63-2.7-0.63-3.93,0    l-12.68,6.5c-3.1,1.59-6.72-0.98-6.13-4.34l2.42-13.76c0.24-1.34-0.22-2.7-1.22-3.65l-10.26-9.75c-2.51-2.38-1.12-6.53,2.34-7.02    l14.18-2.01c1.38-0.19,2.57-1.04,3.18-2.25l6.34-12.52C252.58,370.48,257.06,370.48,258.61,373.54z"/>
<path class="st4" d="M258.61,371.54l6.34,12.52c0.62,1.22,1.81,2.06,3.18,2.25l14.18,2.01c3.47,0.49,4.85,4.64,2.34,7.02    l-10.26,9.75c-1,0.95-1.45,2.31-1.22,3.65l2.42,13.76c0.59,3.36-3.03,5.93-6.13,4.34l-12.68-6.5c-1.23-0.63-2.7-0.63-3.93,0    l-12.68,6.5c-3.1,1.59-6.72-0.98-6.13-4.34l2.42-13.76c0.24-1.34-0.22-2.7-1.22-3.65l-10.26-9.75c-2.51-2.38-1.12-6.53,2.34-7.02    l14.18-2.01c1.38-0.19,2.57-1.04,3.18-2.25l6.34-12.52C252.58,368.48,257.06,368.48,258.61,371.54z"/>
<line class="st4" x1="458.53" x2="438.11" y1="182.7" y2="182.7"/>
<g>
<line class="st4" x1="379.58" x2="379.58" y1="102.79" y2="123.21"/>
<line class="st4" x1="379.58" x2="379.58" y1="242.18" y2="262.6"/>
</g>
<polyline class="st4" points="379.04,144.01 379.04,182.7 401.32,207.66   "/>
</g>
</g>
</svg>